<svg data-v-423bf9ae="" xmlns="http://www.w3.org/2000/svg" viewBox="0 0 323 90" class="iconLeft"><!----><!----><!----><g data-v-423bf9ae="" id="71d02b22-f0b3-4e63-9d15-9b9e0d78aecd" fill="white" transform="matrix(5.6980053264473165,0,0,5.6980053264473165,86.78294564268766,-7.735042022120943)"><path d="M3.36 14.52C5.01 14.52 6.03 13.66 6.03 12.26C6.03 11.17 5.42 10.47 3.82 10.23L3.26 10.15C2.37 10.01 1.88 9.73 1.88 9.03C1.88 8.34 2.37 7.91 3.29 7.91C4.21 7.91 4.83 8.34 5.15 8.79L5.89 8.12C5.31 7.39 4.54 6.96 3.37 6.96C1.90 6.96 0.80 7.66 0.80 9.09C0.80 10.43 1.79 10.98 3.12 11.17L3.70 11.26C4.65 11.40 4.96 11.83 4.96 12.39C4.96 13.13 4.40 13.57 3.44 13.57C2.53 13.57 1.86 13.16 1.30 12.46L0.50 13.10C1.15 13.96 2.03 14.52 3.36 14.52ZM12.46 14.35L13.58 14.35L13.58 7.13L12.46 7.13L12.46 12.12C12.46 13.08 11.59 13.51 10.71 13.51C9.63 13.51 9.06 12.85 9.06 11.56L9.06 7.13L7.94 7.13L7.94 11.76C7.94 13.51 8.89 14.52 10.37 14.52C11.58 14.52 12.12 13.86 12.40 13.17L12.46 13.17ZM17.08 14.35L17.08 9.45C17.08 8.76 17.81 8.25 19.01 8.25L19.67 8.25L19.67 7.13L19.24 7.13C18.06 7.13 17.40 7.77 17.15 8.46L17.08 8.46L17.08 7.13L15.96 7.13L15.96 14.35ZM24.14 14.35L26.68 7.13L25.61 7.13L24.32 10.71L23.53 13.17L23.46 13.17L22.68 10.71L21.42 7.13L20.30 7.13L22.83 14.35ZM30.73 14.52C32.09 14.52 33.12 13.85 33.59 12.87L32.79 12.29C32.41 13.09 31.71 13.54 30.80 13.54C29.46 13.54 28.66 12.60 28.66 11.35L28.66 11.02L33.85 11.02L33.85 10.49C33.85 8.44 32.66 6.96 30.73 6.96C28.77 6.96 27.48 8.44 27.48 10.74C27.48 13.03 28.77 14.52 30.73 14.52ZM30.73 7.90C31.88 7.90 32.65 8.75 32.65 10.02L32.65 10.18L28.66 10.18L28.66 10.08C28.66 8.82 29.51 7.90 30.73 7.90ZM36.26 5.43C36.74 5.43 36.95 5.18 36.95 4.80L36.95 4.62C36.95 4.24 36.74 3.99 36.26 3.99C35.78 3.99 35.57 4.24 35.57 4.62L35.57 4.80C35.57 5.18 35.78 5.43 36.26 5.43ZM35.70 14.35L36.82 14.35L36.82 7.13L35.70 7.13ZM41.38 14.35L41.38 13.37L40.32 13.37L40.32 3.99L39.20 3.99L39.20 13.19C39.20 13.86 39.62 14.35 40.39 14.35Z"></path></g><!----><g data-v-423bf9ae="" id="297096db-fab6-460c-b849-a644491a4a30" transform="matrix(1.0221953637753072,0,0,1.0221953637753072,-16.169765705024815,-5.132155852606154)" stroke="none" fill="white"><path d="M68.06 25.89H51.79V15a4.7 4.7 0 1 0-3.58 0v10.89H31.94a16 16 0 0 0-16 16V78a16 16 0 0 0 16 16h36.12a16 16 0 0 0 16-16V41.9a16 16 0 0 0-16-16.01zm-18-16.35A1.12 1.12 0 1 1 49 10.66a1.12 1.12 0 0 1 1.08-1.12zM80.49 78a12.44 12.44 0 0 1-12.43 12.46H31.94A12.44 12.44 0 0 1 19.51 78V41.9a12.44 12.44 0 0 1 12.43-12.43h36.12A12.44 12.44 0 0 1 80.49 41.9V78zm-44-22.31a8.57 8.57 0 0 0 8.56-8.56v-.24a8.56 8.56 0 0 0-17.13 0v.27a8.57 8.57 0 0 0 8.61 8.56zm-5-8.83a5 5 0 0 1 10 0v.27a5 5 0 1 1-10 0v-.24zm33.3-8.56a8.57 8.57 0 0 0-8.56 8.56v.27a8.56 8.56 0 0 0 17.13 0v-.24a8.57 8.57 0 0 0-8.52-8.57zm5 8.83a5 5 0 1 1-10 0v-.24a5 5 0 0 1 10 0v.27zm-3.21-1.67v3.06a1.79 1.79 0 0 1-3.58 0v-3.03a1.79 1.79 0 0 1 3.62 0zm-31.84 3.09v-3.06a1.79 1.79 0 1 1 3.58 0v3.06a1.79 1.79 0 1 1-3.58 0zm33 18.28H32.77a5.7 5.7 0 0 0 0 11.41H67.7a5.7 5.7 0 0 0 0-11.41zm0 7.83H32.77a2.12 2.12 0 0 1 0-4.25H67.7a2.12 2.12 0 0 1 0 4.25z"></path></g><!----></svg>