<svg data-v-423bf9ae="" xmlns="http://www.w3.org/2000/svg" viewBox="0 0 355 108" class="iconLeft"><!----><!----><!----><g data-v-423bf9ae="" id="586a45a2-94e6-4243-b020-34bc76c4ef39" fill="#000000" transform="matrix(5.6980053264473165,0,0,5.6980053264473165,119.12181283018766,1.1206594244122599)"><path d="M3.36 14.52C5.01 14.52 6.03 13.66 6.03 12.26C6.03 11.17 5.42 10.47 3.82 10.23L3.26 10.15C2.37 10.01 1.88 9.73 1.88 9.03C1.88 8.34 2.37 7.91 3.29 7.91C4.21 7.91 4.83 8.34 5.15 8.79L5.89 8.12C5.31 7.39 4.54 6.96 3.37 6.96C1.90 6.96 0.80 7.66 0.80 9.09C0.80 10.43 1.79 10.98 3.12 11.17L3.70 11.26C4.65 11.40 4.96 11.83 4.96 12.39C4.96 13.13 4.40 13.57 3.44 13.57C2.53 13.57 1.86 13.16 1.30 12.46L0.50 13.10C1.15 13.96 2.03 14.52 3.36 14.52ZM12.46 14.35L13.58 14.35L13.58 7.13L12.46 7.13L12.46 12.12C12.46 13.08 11.59 13.51 10.71 13.51C9.63 13.51 9.06 12.85 9.06 11.56L9.06 7.13L7.94 7.13L7.94 11.76C7.94 13.51 8.89 14.52 10.37 14.52C11.58 14.52 12.12 13.86 12.40 13.17L12.46 13.17ZM17.08 14.35L17.08 9.45C17.08 8.76 17.81 8.25 19.01 8.25L19.67 8.25L19.67 7.13L19.24 7.13C18.06 7.13 17.40 7.77 17.15 8.46L17.08 8.46L17.08 7.13L15.96 7.13L15.96 14.35ZM24.14 14.35L26.68 7.13L25.61 7.13L24.32 10.71L23.53 13.17L23.46 13.17L22.68 10.71L21.42 7.13L20.30 7.13L22.83 14.35ZM30.73 14.52C32.09 14.52 33.12 13.85 33.59 12.87L32.79 12.29C32.41 13.09 31.71 13.54 30.80 13.54C29.46 13.54 28.66 12.60 28.66 11.35L28.66 11.02L33.85 11.02L33.85 10.49C33.85 8.44 32.66 6.96 30.73 6.96C28.77 6.96 27.48 8.44 27.48 10.74C27.48 13.03 28.77 14.52 30.73 14.52ZM30.73 7.90C31.88 7.90 32.65 8.75 32.65 10.02L32.65 10.18L28.66 10.18L28.66 10.08C28.66 8.82 29.51 7.90 30.73 7.90ZM36.26 5.43C36.74 5.43 36.95 5.18 36.95 4.80L36.95 4.62C36.95 4.24 36.74 3.99 36.26 3.99C35.78 3.99 35.57 4.24 35.57 4.62L35.57 4.80C35.57 5.18 35.78 5.43 36.26 5.43ZM35.70 14.35L36.82 14.35L36.82 7.13L35.70 7.13ZM41.38 14.35L41.38 13.37L40.32 13.37L40.32 3.99L39.20 3.99L39.20 13.19C39.20 13.86 39.62 14.35 40.39 14.35Z"></path></g><!----><g data-v-423bf9ae="" id="7526c8a6-81c8-4eab-936e-04ca50bfcb78" transform="matrix(1.093980492485894,0,0,1.093980492485894,-3.306824349066943,0.07118375779580788)" stroke="none" fill="#0B0000"><path d="M18.87 13.56l-4.57-.17h-1.92a5.54 5.54 0 0 0-.77.05 8.37 8.37 0 0 0-3.05 1 8.59 8.59 0 0 0-4.19 5.31 8.29 8.29 0 0 0-.29 1.82v1.54l-.07 3c-.18 8.26-.32 17.61-.44 27.68l-.15 15.6v2c0 .33 0 .87.06 1.29A10.59 10.59 0 0 0 3.65 74 10.21 10.21 0 0 0 11 81.49a10.68 10.68 0 0 0 2.72.35h2.09l22.54.06a31.87 31.87 0 0 0-2.67 12.25 65.53 65.53 0 0 0-8.16 1c-.16 0-.28.68-.26 1.44s.12 1.21.26 1.24c9 1.87 36 1.88 45 0 .16 0 .28-.7.27-1.47s-.13-1.25-.27-1.28a66.07 66.07 0 0 0-8.18-.95 31.9 31.9 0 0 0-2.63-12.23l22.48-.05h2.09c.35 0 .9 0 1.34-.08A10.24 10.24 0 0 0 96.33 74a10.61 10.61 0 0 0 .3-2.64v-2l-.15-15.6c-.11-10.07-.26-19.42-.43-27.68l-.07-3v-1.53a8.52 8.52 0 0 0-.28-1.83 8.62 8.62 0 0 0-4.17-5.36 8.41 8.41 0 0 0-3.06-1 5.21 5.21 0 0 0-.78-.06h-1.93l-4.57.17a1.37 1.37 0 1 0 0 2.74l4.57.17h1.76a2.64 2.64 0 0 1 .48.07 5.16 5.16 0 0 1 4.11 4 4.86 4.86 0 0 1 .1 1.06v1.44l-.07 3c-.17 8.26-.32 17.61-.43 27.68l-.07 7.64C73.9 59.72 26 59.71 8.39 61.4l-.08-7.65c-.12-10.07-.26-19.42-.44-27.68l-.07-3v-1.43a4.69 4.69 0 0 1 .11-1.06 5.18 5.18 0 0 1 4.16-4 2.91 2.91 0 0 1 .48-.06 5.16 5.16 0 0 1 .55 0h1.22l4.57-.17a1.37 1.37 0 0 0 1.35-1.44 1.38 1.38 0 0 0-1.37-1.35zm41.07 80.35c-6.3-.26-13.57-.26-19.88 0a32.42 32.42 0 0 0 2.71-12h14.42a32.43 32.43 0 0 0 2.75 12zm31.61-29.57v7.05a5.34 5.34 0 0 1-.18 1.37 5 5 0 0 1-3.66 3.61 4.94 4.94 0 0 1-.67.12h-2.88L50 76.45l-34.18.09H13.7a5.33 5.33 0 0 1-1.39-.16 5 5 0 0 1-3.65-3.63 5.48 5.48 0 0 1-.13-.66v-7.73c17.55 1.7 65.33 1.69 83.02-.02z"></path><path d="M80.36 27.07c0-.7-.17-1.25-.36-1.28-2.46-.38-6-.68-10-.9-.58-3.45-1.7-8.35-3.17-14l-1.25-4.57-.17-.61a7.06 7.06 0 0 0-.34-.92A6.57 6.57 0 0 0 64 3.12 6.83 6.83 0 0 0 60.57 1a6.62 6.62 0 0 0-2.06-.2 7 7 0 0 0-1 .13l-.51.13-.25.07h-.15L54.09 2 50 3.31 45.9 2l-2.46-.79h-.15L43 1.05l-.48-.13a7.06 7.06 0 0 0-1-.13 6.63 6.63 0 0 0-2.1.21A6.83 6.83 0 0 0 36 3.11a6.57 6.57 0 0 0-1.09 1.67 7 7 0 0 0-.35.92l-.17.61-1.22 4.58c-1.47 5.67-2.6 10.58-3.19 14-4.07.23-7.55.53-10 .92-.21 0-.37.68-.35 1.44 0 .68.17 1.21.35 1.24 12 1.87 48 1.88 60 0 .23.01.39-.65.38-1.42zm-47.2-2.31c1.33-3.15 2.93-7.49 4.64-12.49l1.5-4.49.19-.56a1.92 1.92 0 0 1 .1-.22 1.44 1.44 0 0 1 .28-.38 1.61 1.61 0 0 1 .83-.44 1.35 1.35 0 0 1 .46 0 1.77 1.77 0 0 1 .23 0H41.56l.15.05 2.45.84 5 1.67a2.71 2.71 0 0 0 1.74 0l5-1.67 2.45-.84.15-.05H58.67a1.75 1.75 0 0 1 .23 0 1.36 1.36 0 0 1 .47 0 1.62 1.62 0 0 1 .84.44 1.45 1.45 0 0 1 .29.38 2 2 0 0 1 .11.22l.19.56 1.51 4.49c1.71 5 3.31 9.32 4.65 12.47-10.41-.44-23.49-.43-33.8.02zM55 49.74a9.45 9.45 0 0 0 5.77 4.33 9.94 9.94 0 0 0 4.24.17 10.12 10.12 0 0 0 4.16-1.79 10.2 10.2 0 0 0 0-16.48A10.1 10.1 0 0 0 65 34.2a9.94 9.94 0 0 0-4.24.18A9.43 9.43 0 0 0 55 38.71a8.66 8.66 0 0 0-.95 2.29l-.17-.12a7.81 7.81 0 0 0-3.89-1 8 8 0 0 0-3.16.67A10 10 0 0 0 35 34.38a9.43 9.43 0 0 0-5.75 4.34 8.21 8.21 0 0 0-1.1 5.17c0 .2.67.35 1.42.33s1.21-.11 1.25-.23a7.22 7.22 0 0 1 1.63-3A6 6 0 0 1 36 39a5.37 5.37 0 0 1 4.16 1.16 5.14 5.14 0 0 1 0 8A5.36 5.36 0 0 1 36 49.37a5.93 5.93 0 0 1-3.55-1.89 7.17 7.17 0 0 1-1.62-3c0-.13-.71-.24-1.48-.24s-1.24.15-1.26.34a8.24 8.24 0 0 0 1.12 5.19A9.45 9.45 0 0 0 35 54.08a9.94 9.94 0 0 0 4.24.17 10.12 10.12 0 0 0 4.16-1.79 10.23 10.23 0 0 0 4.11-7.07c.82 0 1.67-.06 2.52 0 1.31 0 2.62.12 3.79 0A8.41 8.41 0 0 0 55 49.74zm3.22-8.8A6 6 0 0 1 61.74 39a5.37 5.37 0 0 1 4.16 1.16 5.14 5.14 0 0 1 0 8 5.36 5.36 0 0 1-4.15 1.16 5.93 5.93 0 0 1-3.55-1.89 7.17 7.17 0 0 1-1.62-3c0-.13-.66-.23-1.39-.24h.1c.68 0 1.21-.11 1.25-.23a7.22 7.22 0 0 1 1.63-3.01z"></path></g><!----></svg>