<svg xmlns="http://www.w3.org/2000/svg" data-name="Layer 1" viewBox="0 0 100 100" x="0px" y="0px"><title>Artboard 22</title><path d="M55.49,62.37a8.31,8.31,0,0,0,.07-1.47,6.89,6.89,0,0,0-.07-1.28c-2.18-1.85-8.77-1.83-11,0a8.15,8.15,0,0,0-.06,1.44,6.67,6.67,0,0,0,.06,1.24C46.71,64.21,53.3,64.22,55.49,62.37Z"></path><path d="M97.23,84.59a14.12,14.12,0,0,0-3.74-4.51A14.41,14.41,0,0,0,91,78.48l-.67-.3-.62-.26-1.12-.43c-1.48-.56-2.92-1.07-4.28-1.52A42.8,42.8,0,0,0,78,74.31c-2.82-4.9-5.31-9.07-7.32-12.27a27.1,27.1,0,0,0,1.84-6.8,14.88,14.88,0,0,0,3.53-4.68,14.33,14.33,0,0,0,1.37-6.21l0-.74c0-.29,0-.58-.1-.86a6.78,6.78,0,0,0-1.92-3.65A27.07,27.07,0,0,0,78,37.67a13.82,13.82,0,0,0,2.87-2.39,7.21,7.21,0,0,0,1.84-3.87,6.1,6.1,0,0,0-1.11-4.11A9.68,9.68,0,0,0,79.22,25a19,19,0,0,0-4.74-2.32,28.78,28.78,0,0,0-3.4-.94c-.66-2.88-1.47-6.17-2.41-9.73L68,9.49a20,20,0,0,0-.91-2.91,8.24,8.24,0,0,0-6.14-4.68,8.35,8.35,0,0,0-4.11.35c-.32.12-.65.27-1,.4L55.24,3l-1.29.64L50,5.58l-3.94-2L44.79,3l-.64-.32c-.31-.14-.63-.28-1-.4a8.36,8.36,0,0,0-4.11-.36,8.25,8.25,0,0,0-6.15,4.67A19.87,19.87,0,0,0,32,9.48L31.34,12c-.95,3.59-1.77,6.89-2.43,9.78a28.81,28.81,0,0,0-3.34.92A19,19,0,0,0,20.83,25a9.68,9.68,0,0,0-2.4,2.31,6.08,6.08,0,0,0-1.12,4.09,7.16,7.16,0,0,0,1.82,3.87A13.7,13.7,0,0,0,22,37.65a27.12,27.12,0,0,0,2.78,1.5,6.68,6.68,0,0,0-1.52,2.27A7,7,0,0,0,22.84,43c0,.26-.07.58-.07.8l0,.71a14.44,14.44,0,0,0,1.39,6,14.8,14.8,0,0,0,3.48,4.62,27.48,27.48,0,0,0,1.84,7c-1.94,3.08-4.33,7.09-7.25,12.16A41,41,0,0,0,15.74,76c-1.36.44-2.8,1-4.28,1.51l-1.11.43-.28.11-.34.15-.67.3a14.34,14.34,0,0,0-2.51,1.59,14.1,14.1,0,0,0-3.75,4.5,13.84,13.84,0,0,0-1.53,5.22c0,.42,0,.84,0,1.25s0,.84.07,1.15c.07.66.15,1.28.24,1.86a24.25,24.25,0,0,0,.61,3,2.94,2.94,0,0,0,1.47.2c.7,0,1.25-.09,1.28-.2a24.25,24.25,0,0,0,.61-3c.09-.58.17-1.21.24-1.86l.12-.86L6,90.52a11.18,11.18,0,0,1,5.5-7.16l.42-.21.21-.11.27-.12,1.08-.5c1.43-.67,2.81-1.34,4.08-2q.9-.47,1.72-.93a2.15,2.15,0,0,0,1.71,3l.12,0c2.94.43,6.07.87,9.74,1.36l1.46,12a2.63,2.63,0,0,0,2.59,2.31H35c9.79.09,20.24.1,30.18,0h.05a2.66,2.66,0,0,0,2.62-2.33l1.48-12,9.71-1.34.12,0A2.23,2.23,0,0,0,81,79.64l1.44.77c1.27.66,2.65,1.33,4.08,2l1.09.5.48.23.42.21a11.4,11.4,0,0,1,1.58,1,11.09,11.09,0,0,1,2.52,2.8A12.09,12.09,0,0,1,94,90.51l.18.84c0,.3.08.51.12.87.07.66.15,1.28.24,1.87a24.15,24.15,0,0,0,.61,3,2.88,2.88,0,0,0,1.44.19c.68,0,1.21-.09,1.24-.19a24.14,24.14,0,0,0,.61-3c.09-.59.17-1.21.24-1.87,0-.3.06-.76.08-1.15s0-.83,0-1.25A13.88,13.88,0,0,0,97.23,84.59ZM22.5,32.14a3,3,0,0,1-.85-1.32,1.78,1.78,0,0,1,.25-1.25,6,6,0,0,1,1.3-1.49,18,18,0,0,1,3.65-2.33c.45-.23.88-.42,1.31-.62-.21,1-.4,2-.55,2.85,0,.27.53.67,1.27.87s1.26.15,1.36-.08c1.55-3.56,3.55-9,5.71-15.42l.82-2.45a19.1,19.1,0,0,1,.76-2.13,3.11,3.11,0,0,1,2.36-1.62,3.07,3.07,0,0,1,1.46.17l.35.16.64.33,1.28.66,5.16,2.62a2.75,2.75,0,0,0,2.48,0L56.4,8.48l1.28-.66.64-.33.35-.16a3.08,3.08,0,0,1,1.46-.17A3.12,3.12,0,0,1,62.5,8.78a19.24,19.24,0,0,1,.76,2.13l.82,2.45c2.17,6.41,4.17,11.86,5.73,15.42.11.25.79.26,1.51,0s1.09-.55,1.05-.79c-.15-.86-.34-1.83-.55-2.87,4.21,1.92,10.09,5.5,3.69,8.41a38.19,38.19,0,0,1-11.81,3.58,86.82,86.82,0,0,1-13.71,1,86.82,86.82,0,0,1-13.71-1,38.16,38.16,0,0,1-11.82-3.57A9.69,9.69,0,0,1,22.5,32.14Zm4.36,12.12a4.45,4.45,0,0,1,0-1.63,3.38,3.38,0,0,1,.57-1.27,3.6,3.6,0,0,1,.84-.82,56.08,56.08,0,0,0,7.09,1.82A80.08,80.08,0,0,0,50,43.68a80.1,80.1,0,0,0,14.64-1.29,56.39,56.39,0,0,0,7-1.79,3.62,3.62,0,0,1,.77.76A3.32,3.32,0,0,1,73,42.59a3,3,0,0,1,.08.69c0,.12,0,.24,0,.36l-.06.51a10.89,10.89,0,0,1-4.59,7.6,2.5,2.5,0,0,0-1.06,1.72l0,.14a25.37,25.37,0,0,1-2.55,8.12,26.73,26.73,0,0,1-5,6.79A124.85,124.85,0,0,0,50,78.91c-2.89-3.27-6-6.73-9.25-10.2l-.16-.15,0,0a25.44,25.44,0,0,1-5.39-6.9,24.54,24.54,0,0,1-2.62-8l0-.18a2.3,2.3,0,0,0-1-1.57A10.88,10.88,0,0,1,26.87,44.26ZM37.31,92.77,35.59,81.29v-.07a2.44,2.44,0,0,0-2.17-2.06c-3.2-.32-6-.58-8.57-.82,2.58-5.21,4.62-9.47,6.19-12.93a28.73,28.73,0,0,0,5.75,7.12c7.5,7.94,15,15.47,20.25,20.2C50.43,92.71,43.75,92.72,37.31,92.77ZM66.77,79.11a2.46,2.46,0,0,0-2.2,2.09v.08l-1.7,11.47H61.48c-2.21-3-5.61-7.1-9.66-11.74a120.26,120.26,0,0,0,11.43-8.75,27.52,27.52,0,0,0,5.81-7c1.64,3.6,3.75,8,6.22,13Z"></path><path d="M93.43,4a6.38,6.38,0,0,0-4.61-1.87c-1.09.05-2,.15-2.89.26a16.08,16.08,0,0,0-4.33,1.05,4.45,4.45,0,0,0-.12,1.44,3.66,3.66,0,0,0,.12,1.24,16.08,16.08,0,0,0,4.33,1.05c.87.12,1.9.2,2.78.27A1.59,1.59,0,0,1,90,8.7c.06.88.14,1.91.26,2.78a16.15,16.15,0,0,0,1,4.33,4.54,4.54,0,0,0,1.47.12A3.78,3.78,0,0,0,94,15.81a16.16,16.16,0,0,0,1-4.33c.11-.92.2-1.79.25-2.89A6.38,6.38,0,0,0,93.43,4Z"></path><path d="M18.53,4.67a3.78,3.78,0,0,0-.12-1.28,16.15,16.15,0,0,0-4.33-1c-.92-.11-1.79-.2-2.89-.25A6.39,6.39,0,0,0,4.72,8.6c.05,1.09.15,2,.26,2.89A16.08,16.08,0,0,0,6,15.81a4.46,4.46,0,0,0,1.44.12,3.67,3.67,0,0,0,1.24-.12,16.08,16.08,0,0,0,1.05-4.33c.12-.87.2-1.9.27-2.78A1.59,1.59,0,0,1,11.3,7.44c.88-.06,1.91-.14,2.78-.26a16.16,16.16,0,0,0,4.33-1A4.54,4.54,0,0,0,18.53,4.67Z"></path><path d="M10.47,63.3a1.56,1.56,0,0,1-.43-.83c-.06-.88-.14-1.91-.26-2.78a16.15,16.15,0,0,0-1-4.33,4.54,4.54,0,0,0-1.47-.12A3.78,3.78,0,0,0,6,55.37,16.16,16.16,0,0,0,5,59.7c-.11.92-.2,1.79-.25,2.89a6.39,6.39,0,0,0,6.49,6.47c1.09-.05,2-.15,2.89-.26a16.08,16.08,0,0,0,4.33-1.05,4.45,4.45,0,0,0,.12-1.44,3.66,3.66,0,0,0-.12-1.24A16.08,16.08,0,0,0,14.08,64c-.87-.12-1.9-.2-2.78-.27A1.56,1.56,0,0,1,10.47,63.3Z"></path><path d="M94,55.37a4.45,4.45,0,0,0-1.44-.12,3.66,3.66,0,0,0-1.24.12,16.08,16.08,0,0,0-1.05,4.33c-.12.87-.2,1.9-.27,2.78a1.59,1.59,0,0,1-1.27,1.26c-.88.06-1.91.14-2.78.26a16.15,16.15,0,0,0-4.33,1,4.54,4.54,0,0,0-.12,1.47,3.78,3.78,0,0,0,.12,1.28,16.15,16.15,0,0,0,4.33,1c.92.11,1.79.2,2.89.25a6.39,6.39,0,0,0,6.47-6.49c-.05-1.09-.15-2-.26-2.89A16.08,16.08,0,0,0,94,55.37Z"></path></svg>