<svg data-v-fde0c5aa="" xmlns="http://www.w3.org/2000/svg" viewBox="0 0 300 300" class="iconLeft"><!----><defs data-v-fde0c5aa=""><!----></defs><rect data-v-fde0c5aa="" fill="#00acff" x="0" y="0" width="300px" height="300px" class="logo-background-square"></rect><defs data-v-fde0c5aa=""><!----></defs><g data-v-fde0c5aa="" id="c5642550-d738-4fb0-86a7-c277798f1f18" fill="#ffffff" transform="matrix(3.6559800708289623,0,0,3.6559800708289623,111.71344221688574,116.98649919335934)"><path d="M3.58 9.67C2.48 9.48 2.02 9.23 2.02 8.32C2.02 7.62 2.45 7.18 3.49 7.18C4.59 7.18 5.00 7.63 5.03 8.47L6.23 8.47C6.23 6.93 5.39 6.08 3.51 6.08C1.74 6.08 0.76 6.96 0.76 8.37C0.76 10.07 1.76 10.53 3.26 10.78C4.41 10.98 5.05 11.24 5.05 12.28C5.05 13.17 4.52 13.61 3.49 13.61C2.27 13.61 1.81 13.10 1.81 12.21L0.57 12.21C0.57 13.85 1.51 14.71 3.43 14.71C5.32 14.71 6.36 13.79 6.36 12.19C6.36 10.35 5.00 9.91 3.58 9.67ZM13.55 14.55L13.55 6.24L12.26 6.24L12.26 11.90C12.26 13.02 11.63 13.58 10.67 13.58C9.46 13.58 9.13 12.98 9.13 11.62L9.13 6.24L7.84 6.24L7.84 11.73C7.84 13.68 8.43 14.71 10.30 14.71C11.21 14.71 11.94 14.43 12.35 13.92L12.43 14.55ZM15.54 6.24L15.54 14.55L16.83 14.55L16.83 9.38C16.83 8.02 17.64 7.41 18.66 7.41C18.87 7.41 19.03 7.42 19.18 7.45L19.18 6.12C19.07 6.10 18.91 6.09 18.77 6.09C17.85 6.09 17.11 6.62 16.77 7.22L16.66 6.24ZM19.99 6.24L22.39 14.55L24.01 14.55L26.40 6.24L24.96 6.24L23.20 13.09L21.46 6.24ZM31.79 12.22C31.77 13.17 31.37 13.61 30.24 13.61C29.04 13.61 28.62 13.03 28.62 11.63L28.62 10.71L33.07 10.71L33.07 9.17C33.07 7.04 32.19 6.08 30.23 6.08C28.29 6.08 27.34 7.08 27.34 9.24L27.34 11.54C27.34 13.82 28.25 14.71 30.25 14.71C32.17 14.71 32.96 13.87 33.00 12.22ZM30.24 7.20C31.46 7.20 31.84 7.87 31.84 9.23L31.84 9.69L28.62 9.69L28.62 9.30C28.62 7.80 29.04 7.20 30.24 7.20ZM36.08 6.24L34.79 6.24L34.79 14.55L36.08 14.55ZM36.09 3.35L34.78 3.35L34.78 4.70L36.09 4.70ZM40.56 13.47C39.56 13.50 39.31 13.30 39.31 11.97L39.31 3.74L38.02 3.74L38.02 11.90C38.02 13.99 38.47 14.81 40.56 14.60Z"></path></g><defs data-v-fde0c5aa=""><!----></defs><g data-v-fde0c5aa="" id="87537caa-4c89-4d1d-bd2d-1d70c2659c9f" stroke="none" fill="#010033" transform="matrix(0.7243629345654347,0,0,0.7243629345654347,34.180530759701576,113.78195551106458)"><g color="#000"><path style="text-indent:0;text-transform:none;block-progression:tb" d="M15.72 17.949a6.698 6.698 0 0 0-1.793.227c-2.38.638-4.147 2.518-5.083 4.894-.936 2.376-1.091 5.28-.307 8.207.784 2.929 2.37 5.365 4.369 6.954 1.999 1.588 4.469 2.332 6.849 1.695 2.377-.638 4.142-2.518 5.08-4.894.937-2.375 1.095-5.279.31-8.207-.783-2.929-2.37-5.365-4.368-6.954-1.5-1.191-3.264-1.907-5.056-1.922zm-.002 1.997c1.287.009 2.6.527 3.813 1.491 1.618 1.286 3.001 3.363 3.682 5.905.68 2.541.52 5.033-.24 6.957-.758 1.923-2.066 3.247-3.736 3.695-1.676.448-3.47-.043-5.087-1.33-1.618-1.285-3.001-3.362-3.682-5.904-.68-2.542-.522-5.034.236-6.957s2.065-3.246 3.74-3.695a4.777 4.777 0 0 1 1.274-.162zM51.488 36.756a37.7 37.7 0 0 0-4.616.262c-9.85 1.163-19.606 6.13-25.753 14.189-6.147 8.059-8.589 19.246-3.818 32.45a1 1 0 0 0 .003.01c1.8 4.83 4.9 7.553 8.201 8.677 3.3 1.124 6.732.704 9.363-.48h.004c7.037-3.128 19.68-3.248 26.136-.225a1 1 0 0 0 .004 0c2.278 1.053 5.493 1.794 8.77.702 3.277-1.091 6.46-4.035 8.62-9.871a1 1 0 0 0 .033-.111c4.147-17.075 1.314-29.069-5.189-36.456-5.486-6.232-13.479-9.101-21.76-9.147zm-.017 1.999c7.806.039 15.225 2.732 20.275 8.469 5.979 6.792 8.788 17.97 4.76 34.603-2.013 5.414-4.724 7.74-7.355 8.616-2.638.88-5.351.28-7.298-.62-7.332-3.43-20.01-3.251-27.798.213a1 1 0 0 0-.004 0c-2.191.987-5.153 1.348-7.9.413-2.745-.935-5.341-3.112-6.97-7.473l-.001-.01h-.002c-4.571-12.662-2.234-22.991 3.53-30.55 5.767-7.56 15.057-12.311 24.399-13.415a35.717 35.717 0 0 1 4.364-.249zM36.989 6.999a6.673 6.673 0 0 0-1.79.227c-2.38.638-4.147 2.518-5.083 4.894-.936 2.376-1.091 5.28-.307 8.207.784 2.929 2.37 5.365 4.367 6.954 1.998 1.588 4.465 2.332 6.841 1.695h.001c2.38-.638 4.149-2.518 5.086-4.894.937-2.375 1.093-5.279.303-8.207v-.002c-.784-2.928-2.37-5.364-4.367-6.952-1.498-1.191-3.26-1.908-5.05-1.923zm-.001 1.997c1.284.009 2.595.526 3.807 1.49 1.617 1.287 3 3.364 3.68 5.906a1 1 0 0 0 0 .002c.686 2.54.527 5.032-.231 6.955-.76 1.923-2.07 3.247-3.744 3.695a1 1 0 0 0-.001 0c-1.67.449-3.46-.042-5.078-1.328-1.616-1.286-3-3.364-3.68-5.905-.68-2.542-.522-5.034.236-6.958.757-1.923 2.064-3.246 3.74-3.695a4.751 4.751 0 0 1 1.27-.162zM84.28 17.949c-1.793.015-3.557.731-5.056 1.922-2 1.59-3.585 4.025-4.37 6.954-.784 2.928-.626 5.832.312 8.207.937 2.376 2.702 4.256 5.078 4.894 2.38.637 4.851-.107 6.85-1.695 1.999-1.589 3.585-4.025 4.369-6.954.784-2.928.629-5.831-.307-8.207-.936-2.376-2.703-4.256-5.083-4.894a6.7 6.7 0 0 0-1.793-.227zm0 1.997c.43-.003.856.05 1.275.162 1.675.449 2.982 1.772 3.74 3.695.757 1.923.916 4.415.235 6.957-.68 2.542-2.063 4.62-3.681 5.905-1.618 1.286-3.412 1.777-5.087 1.329-1.67-.448-2.978-1.772-3.737-3.695-.76-1.924-.92-4.416-.24-6.957.681-2.542 2.064-4.619 3.682-5.905 1.214-.964 2.526-1.482 3.813-1.491zM63.01 6.999c-1.79.014-3.552.731-5.05 1.922-1.997 1.589-3.583 4.024-4.367 6.952l-.001.002c-.79 2.929-.634 5.832.302 8.208.936 2.375 2.701 4.255 5.077 4.893a1 1 0 0 0 .001 0c2.38.638 4.85-.106 6.85-1.695 1.998-1.588 3.584-4.025 4.368-6.953.784-2.928.63-5.832-.307-8.208-.936-2.375-2.703-4.255-5.082-4.893H64.8a6.674 6.674 0 0 0-1.79-.228zm.003 1.997c.427-.003.852.05 1.27.162 1.676.449 2.983 1.772 3.74 3.695.758 1.923.917 4.415.236 6.957-.68 2.542-2.063 4.62-3.681 5.905-1.618 1.286-3.412 1.777-5.087 1.329-1.67-.448-2.978-1.772-3.735-3.695-.758-1.923-.917-4.415-.232-6.956a1 1 0 0 0 0-.002c.68-2.541 2.064-4.619 3.68-5.905 1.213-.964 2.524-1.481 3.808-1.49z" overflow="visible"></path></g></g><!----></svg>