<svg data-v-fde0c5aa="" xmlns="http://www.w3.org/2000/svg" viewBox="0 0 300 300" class="font"><!----><defs data-v-fde0c5aa=""><!----></defs><rect data-v-fde0c5aa="" fill="#00acff" x="0" y="0" width="300px" height="300px" class="logo-background-square"></rect><defs data-v-fde0c5aa=""><!----></defs><g data-v-fde0c5aa="" id="176f0d45-cd00-48f9-aa6a-90bd2fb32936" fill="#010033" transform="matrix(5.501375112931346,0,0,5.501375112931346,36.86421622497804,100.32258157599551)"><path d="M3.58 9.67C2.48 9.48 2.02 9.23 2.02 8.32C2.02 7.62 2.45 7.18 3.49 7.18C4.59 7.18 5.00 7.63 5.03 8.47L6.23 8.47C6.23 6.93 5.39 6.08 3.51 6.08C1.74 6.08 0.76 6.96 0.76 8.37C0.76 10.07 1.76 10.53 3.26 10.78C4.41 10.98 5.05 11.24 5.05 12.28C5.05 13.17 4.52 13.61 3.49 13.61C2.27 13.61 1.81 13.10 1.81 12.21L0.57 12.21C0.57 13.85 1.51 14.71 3.43 14.71C5.32 14.71 6.36 13.79 6.36 12.19C6.36 10.35 5.00 9.91 3.58 9.67ZM13.55 14.55L13.55 6.24L12.26 6.24L12.26 11.90C12.26 13.02 11.63 13.58 10.67 13.58C9.46 13.58 9.13 12.98 9.13 11.62L9.13 6.24L7.84 6.24L7.84 11.73C7.84 13.68 8.43 14.71 10.30 14.71C11.21 14.71 11.94 14.43 12.35 13.92L12.43 14.55ZM15.54 6.24L15.54 14.55L16.83 14.55L16.83 9.38C16.83 8.02 17.64 7.41 18.66 7.41C18.87 7.41 19.03 7.42 19.18 7.45L19.18 6.12C19.07 6.10 18.91 6.09 18.77 6.09C17.85 6.09 17.11 6.62 16.77 7.22L16.66 6.24ZM19.99 6.24L22.39 14.55L24.01 14.55L26.40 6.24L24.96 6.24L23.20 13.09L21.46 6.24ZM31.79 12.22C31.77 13.17 31.37 13.61 30.24 13.61C29.04 13.61 28.62 13.03 28.62 11.63L28.62 10.71L33.07 10.71L33.07 9.17C33.07 7.04 32.19 6.08 30.23 6.08C28.29 6.08 27.34 7.08 27.34 9.24L27.34 11.54C27.34 13.82 28.25 14.71 30.25 14.71C32.17 14.71 32.96 13.87 33.00 12.22ZM30.24 7.20C31.46 7.20 31.84 7.87 31.84 9.23L31.84 9.69L28.62 9.69L28.62 9.30C28.62 7.80 29.04 7.20 30.24 7.20ZM36.08 6.24L34.79 6.24L34.79 14.55L36.08 14.55ZM36.09 3.35L34.78 3.35L34.78 4.70L36.09 4.70ZM40.56 13.47C39.56 13.50 39.31 13.30 39.31 11.97L39.31 3.74L38.02 3.74L38.02 11.90C38.02 13.99 38.47 14.81 40.56 14.60Z"></path></g><!----><!----></svg>