<svg data-v-423bf9ae="" xmlns="http://www.w3.org/2000/svg" viewBox="0 0 318.831278933812 60" class="font"><!----><!----><!----><g data-v-423bf9ae="" id="745471e0-bdc1-4397-b23b-b445d6474049" fill="white" transform="matrix(5.6550420875057705,0,0,5.6550420875057705,-6.729494752093871,-22.111214809105142)"><path d="M4.41 14.52C6.05 14.52 7.27 13.83 7.27 12.38C7.27 11.02 6.20 10.68 4.97 10.51L3.84 10.35C2.74 10.19 2.03 9.91 2.03 8.92C2.03 7.85 2.87 7.38 4.17 7.38C5.52 7.38 6.20 7.90 6.66 8.43L7 8.09C6.43 7.49 5.59 6.96 4.19 6.96C2.73 6.96 1.54 7.52 1.54 8.95C1.54 10.30 2.60 10.63 3.85 10.81L4.97 10.96C6.06 11.12 6.78 11.40 6.78 12.40C6.78 13.55 5.82 14.10 4.41 14.10C3.16 14.10 2.27 13.69 1.54 12.80L1.19 13.09C1.96 14.03 3.01 14.52 4.41 14.52ZM14.63 14.35L15.12 14.35L15.12 7.13L14.63 7.13L14.63 12.29C14.63 13.50 13.61 14.08 12.52 14.08C11.19 14.08 10.44 13.36 10.44 11.73L10.44 7.13L9.95 7.13L9.95 11.82C9.95 13.57 10.84 14.52 12.40 14.52C13.66 14.52 14.32 13.92 14.59 13.29L14.63 13.29ZM17.91 14.35L23.88 14.35L23.88 13.92L20.80 13.92L20.80 9.84C20.80 8.37 21.78 7.59 23.00 7.59L24.60 7.59L24.60 7.13L23.13 7.13C21.77 7.13 21.17 7.81 20.85 8.62L20.80 8.62L20.80 7.13L17.91 7.13L17.91 7.56L20.31 7.56L20.31 13.92L17.91 13.92ZM29.71 14.35L32.40 7.13L31.91 7.13L29.43 13.87L29.39 13.87L26.91 7.13L26.40 7.13L29.09 14.35ZM37.90 14.52C39.30 14.52 40.26 13.79 40.68 12.67L40.29 12.46C39.87 13.54 39.05 14.08 37.90 14.08C36.26 14.08 35.34 12.94 35.34 11.14L35.34 10.78L40.82 10.78L40.82 10.58C40.82 8.40 39.76 6.96 37.83 6.96C35.97 6.96 34.80 8.29 34.80 10.74C34.80 13.19 35.97 14.52 37.90 14.52ZM37.83 7.38C39.40 7.38 40.31 8.51 40.31 10.32L40.31 10.39L35.34 10.39L35.34 10.33C35.34 8.53 36.26 7.38 37.83 7.38ZM46.65 4.87C47.03 4.87 47.17 4.69 47.17 4.45L47.17 4.33C47.17 4.09 47.03 3.91 46.65 3.91C46.27 3.91 46.13 4.09 46.13 4.33L46.13 4.45C46.13 4.69 46.27 4.87 46.65 4.87ZM43.60 14.35L49.53 14.35L49.53 13.92L46.90 13.92L46.90 7.13L43.60 7.13L43.60 7.56L46.41 7.56L46.41 13.92L43.60 13.92ZM51.63 14.35L57.57 14.35L57.57 13.92L54.85 13.92L54.85 3.99L51.63 3.99L51.63 4.42L54.36 4.42L54.36 13.92L51.63 13.92Z"></path></g><!----><!----></svg>